<?xml version="1.0" standalone="no"?>
<!DOCTYPE svg PUBLIC "-//W3C//DTD SVG 20010904//EN"
 "http://www.w3.org/TR/2001/REC-SVG-20010904/DTD/svg10.dtd">
<svg version="1.0" xmlns="http://www.w3.org/2000/svg"
 width="512.000000pt" height="512.000000pt" viewBox="0 0 512.000000 512.000000"
 preserveAspectRatio="xMidYMid meet">

<g transform="translate(0.000000,512.000000) scale(0.100000,-0.100000)"
fill="#000000" stroke="none">
<path d="M836 5097 c-21 -12 -47 -38 -57 -57 -18 -34 -19 -118 -19 -2480 0
-2362 1 -2446 19 -2480 36 -68 127 -98 194 -64 18 10 362 349 766 755 l733
739 884 0 c867 0 886 0 924 20 69 35 99 125 63 193 -20 40 -3324 3356 -3367
3379 -43 24 -94 22 -140 -5z"/>
</g>
</svg>
